REM DIRINDEX 1\2\5,1\2\6,1\2\7,1\2\8,1\3\9,1\3\10,1\3\11,1\4\12,1\4\13,1\4\14,1\4\15,1\4\16
REM DIRNAME folder01,folder02,folder03,folder04,folder05,folder06,folder07,folder08,folder09,folder10,folder11,folder12,folder13,folder14,folder15,folder16
TITLE ""
FILE "1200_sec01_0076_0084.mp3" MP3
  TRACK 01 AUDIO
    TITLE "0:"
    INDEX 01 00:00:00
  TRACK 02 AUDIO
    TITLE "12:cjc034_03929"
    INDEX 01 00:00:19
  TRACK 03 AUDIO
    TITLE "0:"
    INDEX 01 00:01:30
  TRACK 04 AUDIO
    TITLE "13:cjc034_03930"
    INDEX 01 00:01:64
  TRACK 05 AUDIO
    TITLE "0:"
    INDEX 01 00:03:74
  TRACK 06 AUDIO
    TITLE "14:cjc034_03931"
    INDEX 01 00:04:33
  TRACK 07 AUDIO
    TITLE "0:"
    INDEX 01 00:05:44
  TRACK 08 AUDIO
    TITLE "15:cjc034_03932"
    INDEX 01 00:06:00
  TRACK 09 AUDIO
    TITLE "0:"
    INDEX 01 00:09:65
  TRACK 10 AUDIO
    TITLE "12:cjc034_03933"
    INDEX 01 00:11:25
  TRACK 11 AUDIO
    TITLE "0:"
    INDEX 01 00:12:36
  TRACK 12 AUDIO
    TITLE "13:cjc034_03934"
    INDEX 01 00:12:67
  TRACK 13 AUDIO
    TITLE "0:"
    INDEX 01 00:15:13
  TRACK 14 AUDIO
    TITLE "14:cjc034_03935"
    INDEX 01 00:15:46
  TRACK 15 AUDIO
    TITLE "0:"
    INDEX 01 00:16:55
  TRACK 16 AUDIO
    TITLE "15:cjc034_03936"
    INDEX 01 00:17:12
  TRACK 17 AUDIO
    TITLE "0:"
    INDEX 01 00:19:63
  TRACK 18 AUDIO
    TITLE "12:cjc034_03937"
    INDEX 01 00:21:21
  TRACK 19 AUDIO
    TITLE "0:"
    INDEX 01 00:22:23
  TRACK 20 AUDIO
    TITLE "13:cjc034_03938"
    INDEX 01 00:22:60
  TRACK 21 AUDIO
    TITLE "0:"
    INDEX 01 00:25:27
  TRACK 22 AUDIO
    TITLE "14:cjc034_03939"
    INDEX 01 00:25:60
  TRACK 23 AUDIO
    TITLE "0:"
    INDEX 01 00:26:66
  TRACK 24 AUDIO
    TITLE "15:cjc034_03940"
    INDEX 01 00:27:24
  TRACK 25 AUDIO
    TITLE "0:"
    INDEX 01 00:31:31
  TRACK 26 AUDIO
    TITLE "12:cjc034_03941"
    INDEX 01 00:32:62
  TRACK 27 AUDIO
    TITLE "0:"
    INDEX 01 00:34:00
  TRACK 28 AUDIO
    TITLE "13:cjc034_03942"
    INDEX 01 00:34:34
  TRACK 29 AUDIO
    TITLE "0:"
    INDEX 01 00:37:03
  TRACK 30 AUDIO
    TITLE "14:cjc034_03943"
    INDEX 01 00:37:36
  TRACK 31 AUDIO
    TITLE "0:"
    INDEX 01 00:38:49
  TRACK 32 AUDIO
    TITLE "15:cjc034_03944"
    INDEX 01 00:39:05
  TRACK 33 AUDIO
    TITLE "0:"
    INDEX 01 00:42:53
  TRACK 34 AUDIO
    TITLE "12:cjc034_03945"
    INDEX 01 00:44:12
  TRACK 35 AUDIO
    TITLE "0:"
    INDEX 01 00:45:30
  TRACK 36 AUDIO
    TITLE "13:cjc034_03946"
    INDEX 01 00:45:65
  TRACK 37 AUDIO
    TITLE "0:"
    INDEX 01 00:47:09
  TRACK 38 AUDIO
    TITLE "14:cjc034_03947"
    INDEX 01 00:47:42
  TRACK 39 AUDIO
    TITLE "0:"
    INDEX 01 00:48:61
  TRACK 40 AUDIO
    TITLE "15:cjc034_03948"
    INDEX 01 00:49:18
  TRACK 41 AUDIO
    TITLE "0:"
    INDEX 01 00:52:12
  TRACK 42 AUDIO
    TITLE "12:cjc034_03949"
    INDEX 01 00:53:45
  TRACK 43 AUDIO
    TITLE "0:"
    INDEX 01 00:54:50
  TRACK 44 AUDIO
    TITLE "13:cjc034_03950"
    INDEX 01 00:55:06
  TRACK 45 AUDIO
    TITLE "0:"
    INDEX 01 00:57:03
  TRACK 46 AUDIO
    TITLE "14:cjc034_03951"
    INDEX 01 00:57:39
  TRACK 47 AUDIO
    TITLE "0:"
    INDEX 01 00:58:44
  TRACK 48 AUDIO
    TITLE "15:cjc034_03952"
    INDEX 01 00:59:00
  TRACK 49 AUDIO
    TITLE "0:"
    INDEX 01 01:02:14
  TRACK 50 AUDIO
    TITLE "12:cjc034_03953"
    INDEX 01 01:03:47
  TRACK 51 AUDIO
    TITLE "0:"
    INDEX 01 01:04:64
  TRACK 52 AUDIO
    TITLE "13:cjc034_03954"
    INDEX 01 01:05:24
  TRACK 53 AUDIO
    TITLE "0:"
    INDEX 01 01:06:53
  TRACK 54 AUDIO
    TITLE "14:cjc034_03955"
    INDEX 01 01:07:14
  TRACK 55 AUDIO
    TITLE "0:"
    INDEX 01 01:08:27
  TRACK 56 AUDIO
    TITLE "15:cjc034_03956"
    INDEX 01 01:08:64
  TRACK 57 AUDIO
    TITLE "0:"
    INDEX 01 01:11:56
  TRACK 58 AUDIO
    TITLE "12:cjc034_03957"
    INDEX 01 01:13:16
  TRACK 59 AUDIO
    TITLE "0:"
    INDEX 01 01:14:29
  TRACK 60 AUDIO
    TITLE "13:cjc034_03958"
    INDEX 01 01:14:61
  TRACK 61 AUDIO
    TITLE "0:"
    INDEX 01 01:16:01
  TRACK 62 AUDIO
    TITLE "14:cjc034_03959"
    INDEX 01 01:16:38
  TRACK 63 AUDIO
    TITLE "0:"
    INDEX 01 01:17:51
  TRACK 64 AUDIO
    TITLE "15:cjc034_03960"
    INDEX 01 01:18:11
  TRACK 65 AUDIO
    TITLE "0:"
    INDEX 01 01:21:25
  TRACK 66 AUDIO
    TITLE "12:cjc034_03961"
    INDEX 01 01:22:66
  TRACK 67 AUDIO
    TITLE "0:"
    INDEX 01 01:24:10
  TRACK 68 AUDIO
    TITLE "13:cjc034_03962"
    INDEX 01 01:24:43
  TRACK 69 AUDIO
    TITLE "0:"
    INDEX 01 01:26:01
  TRACK 70 AUDIO
    TITLE "14:cjc034_03963"
    INDEX 01 01:26:40
  TRACK 71 AUDIO
    TITLE "0:"
    INDEX 01 01:27:61
  TRACK 72 AUDIO
    TITLE "15:cjc034_03964"
    INDEX 01 01:28:18
  TRACK 73 AUDIO
    TITLE "0:"
    INDEX 01 01:31:73
